<?xml version="1.0" encoding="utf-8"?>
<!-- Generator: Adobe Illustrator 16.2.0, SVG Export Plug-In . SVG Version: 6.00 Build 0)  -->
<!DOCTYPE svg PUBLIC "-//W3C//DTD SVG 1.1//EN" "http://www.w3.org/Graphics/SVG/1.1/DTD/svg11.dtd">
<svg version="1.1" id="Layer_1" xmlns="http://www.w3.org/2000/svg" xmlns:xlink="http://www.w3.org/1999/xlink" x="0px" y="0px"
	 width="54.417px" height="150.363px" viewBox="0 0 54.417 150.363" enable-background="new 0 0 54.417 150.363"
	 xml:space="preserve">
<g>
	<path fill="#FFFFFF" stroke="#000000" stroke-width="2" stroke-miterlimit="10" d="M1,150.363V95.149c0,0,0-53.207,26.208-53.207
		c26.209,0,26.209,53.207,26.209,53.207v55.214"/>
	<path fill="#FAC0BF" stroke="#000000" stroke-width="2" stroke-miterlimit="10" d="M46.494,97.676c0,0,1.402,12.527-19.287,12.527
		c-20.688,0-19.285-12.527-19.285-12.527S1.574,1,27.209,1C52.845,1,46.494,97.676,46.494,97.676z"/>
	<path fill="#FFFFFF" d="M24.081,4.09v96.809c-2.736,0.473-3.438-0.35-6-3.934v-85c0,0,0.467-1.713,2.625-4.563
		C22.601,4.902,24.081,4.09,24.081,4.09z"/>
</g>
</svg>
