<?xml version="1.0" encoding="utf-8"?>
<!-- Generator: Adobe Illustrator 16.2.0, SVG Export Plug-In . SVG Version: 6.00 Build 0)  -->
<!DOCTYPE svg PUBLIC "-//W3C//DTD SVG 1.1//EN" "http://www.w3.org/Graphics/SVG/1.1/DTD/svg11.dtd">
<svg version="1.1" id="Layer_1" xmlns="http://www.w3.org/2000/svg" xmlns:xlink="http://www.w3.org/1999/xlink" x="0px" y="0px"
	 width="54.417px" height="125.716px" viewBox="0 0 54.417 125.716" enable-background="new 0 0 54.417 125.716"
	 xml:space="preserve">
<g>
	<path fill="#FFFFFF" stroke="#000000" stroke-width="2" stroke-miterlimit="10" d="M1,125.716V70.502c0,0,0-53.207,26.208-53.207
		c26.208,0,26.208,53.207,26.208,53.207v55.214"/>
	<path fill="#FAC0BF" stroke="#000000" stroke-width="2" stroke-miterlimit="10" d="M46.424,6.166c0,0,2.328,57.667,0.334,69.667
		c-0.846,5.086-4.141,13.237-19.683,13.237c-15.541,0-17.439-8.477-19.416-13.237C5.455,70.525,7.325,6.166,7.325,6.166
		s0-5.188,19.883-5.166C46.469,1.021,46.424,6.166,46.424,6.166z"/>
	<path fill="#FFFFFF" d="M35.436,54.581c-5.721,1.04-11.778-1.303-15.218-6.444c-3.167-4.733-1.896-11.14,2.838-14.306
		c3.242-2.17,7.628-1.299,9.798,1.943c1.484,2.22,0.889,5.225-1.332,6.709c-1.52,1.019-3.578,0.611-4.595-0.911
		c-0.696-1.041-0.417-2.45,0.625-3.146c0.712-0.478,1.679-0.286,2.154,0.427c-0.162-0.842-0.979-1.393-1.82-1.229
		c-1.23,0.238-2.034,1.429-1.796,2.659c0.348,1.797,2.086,2.971,3.883,2.622c2.621-0.509,4.336-3.047,3.828-5.669
		c-0.742-3.83-4.447-6.333-8.278-5.591c-5.592,1.083-9.247,6.495-8.163,12.086c1.582,8.165,9.484,13.501,17.648,11.919
		L35.436,54.581z"/>
	<path fill="#FFFFFF" d="M20.714,52.155c9.773,0.67,17.154,9.135,16.484,18.909c-0.459,6.694-6.258,11.749-12.951,11.29
		c-4.585-0.314-8.047-4.286-7.732-8.87c0.216-3.141,2.935-5.511,6.076-5.296c2.15,0.146,3.773,2.01,3.627,4.16
		c-0.102,1.473-1.377,2.586-2.85,2.484c-1.01-0.068-1.771-0.942-1.702-1.951c-0.375,0.939,0.084,2.004,1.023,2.379
		c1.371,0.546,2.927-0.123,3.473-1.495c0.798-2.003-0.179-4.272-2.182-5.07c-2.925-1.165-6.238,0.262-7.403,3.187
		c-1.701,4.268,0.381,9.107,4.65,10.809c6.233,2.482,13.3-0.558,15.783-6.791c3.625-9.102-0.814-19.418-9.915-23.043L20.714,52.155z
		"/>
	<path fill="#FFFFFF" d="M46.557,53.853c-9.51,1.056-20.331-1.621-27.883-8.649c-9.426-8.771-9.956-23.521-1.187-32.944
		c6.007-6.455,16.109-6.816,22.566-0.812c4.42,4.114,4.668,11.033,0.555,15.455c-2.818,3.026-7.557,3.196-10.584,0.379
		c-2.074-1.929-2.191-5.175-0.26-7.249c1.32-1.419,3.543-1.5,4.963-0.178c0.973,0.904,1.029,2.427,0.123,3.4
		c-0.619,0.666-1.662,0.703-2.328,0.083c0.115,0.902,0.939,1.541,1.842,1.426c1.318-0.17,2.25-1.376,2.08-2.693
		c-0.246-1.925-2.006-3.283-3.93-3.038c-2.811,0.361-4.795,2.932-4.435,5.741c0.527,4.102,4.279,7.002,8.38,6.476
		c5.99-0.769,10.225-6.248,9.455-12.237c-1.123-8.745-9.121-14.926-17.867-13.805C15.278,6.846,6.255,18.524,7.893,31.294
		c2.393,18.645,19.931,32.1,38.575,29.709L46.557,53.853z"/>
</g>
</svg>
