<?xml version="1.0" encoding="utf-8"?>
<!-- Generator: Adobe Illustrator 16.2.0, SVG Export Plug-In . SVG Version: 6.00 Build 0)  -->
<!DOCTYPE svg PUBLIC "-//W3C//DTD SVG 1.1//EN" "http://www.w3.org/Graphics/SVG/1.1/DTD/svg11.dtd">
<svg version="1.1" id="Layer_1" xmlns="http://www.w3.org/2000/svg" xmlns:xlink="http://www.w3.org/1999/xlink" x="0px" y="0px"
	 width="49.248px" height="49.248px" viewBox="0 0 49.248 49.248" enable-background="new 0 0 49.248 49.248" xml:space="preserve">
<g>
	<path d="M20.04,22.803c0.629,0,1.159-0.248,1.569-0.717c0.646-0.732,0.928-1.936,0.76-3.215c-0.301-2.287-1.932-4.187-3.637-4.236
		h-0.067c-0.604,0-1.142,0.246-1.552,0.715c-0.637,0.726-0.902,1.871-0.735,3.146c0.299,2.284,1.965,4.256,3.635,4.307H20.04z"/>
	<path d="M21.9,29.688c-0.168-0.112-0.342-0.23-0.521-0.354c-0.525-0.162-1.084-0.246-1.654-0.255h-0.072
		c-2.625,0-4.929,1.593-4.929,3.405c0,1.973,1.972,3.52,4.491,3.52c3.321,0,5.005-1.146,5.005-3.404
		c0-0.215-0.024-0.436-0.075-0.654C23.92,31.063,23.115,30.519,21.9,29.688z"/>
	<path d="M24.625,0C11.024,0,0,11.023,0,24.623c0,13.601,11.024,24.625,24.625,24.625c13.599,0,24.623-11.024,24.623-24.625
		C49.248,11.023,38.224,0,24.625,0z M22.385,38.021c-0.982,0.282-2.042,0.429-3.154,0.429c-1.238,0-2.43-0.144-3.54-0.425
		c-2.149-0.541-3.74-1.569-4.479-2.896c-0.32-0.573-0.482-1.185-0.482-1.815c0-0.651,0.156-1.313,0.463-1.967
		c1.18-2.511,4.283-4.197,7.722-4.197c0.035,0,0.068,0,0.101,0c-0.279-0.491-0.416-1.002-0.416-1.537
		c0-0.269,0.035-0.538,0.104-0.813c-3.605-0.084-6.306-2.726-6.306-6.207c0-2.461,1.965-4.854,4.776-5.824
		c0.842-0.291,1.698-0.438,2.543-0.438h7.714c0.264,0,0.493,0.17,0.575,0.42c0.084,0.252-0.01,0.525-0.223,0.68l-1.726,1.248
		c-0.104,0.074-0.229,0.115-0.356,0.115h-0.615c0.799,0.955,1.267,2.316,1.267,3.848c0,1.691-0.855,3.289-2.411,4.507
		c-1.201,0.937-1.25,1.19-1.25,1.729c0.018,0.295,0.854,1.252,1.775,1.903c2.15,1.521,2.953,3.015,2.953,5.509
		C27.418,34.883,25.44,37.135,22.385,38.021z M39.808,24.791c0,0.334-0.273,0.604-0.607,0.604h-4.383v4.387
		c0,0.336-0.271,0.605-0.605,0.605h-1.248c-0.336,0-0.607-0.271-0.607-0.605v-4.387H27.97c-0.332,0-0.604-0.271-0.604-0.604v-1.25
		c0-0.334,0.272-0.607,0.604-0.607h4.385v-4.383c0-0.336,0.271-0.606,0.607-0.606h1.248c0.336,0,0.605,0.271,0.605,0.606v4.383
		h4.383c0.334,0,0.607,0.273,0.607,0.607L39.808,24.791L39.808,24.791z"/>
</g>
</svg>
