<?xml version="1.0" encoding="utf-8"?>
<!-- Generator: Adobe Illustrator 16.2.0, SVG Export Plug-In . SVG Version: 6.00 Build 0)  -->
<!DOCTYPE svg PUBLIC "-//W3C//DTD SVG 1.1//EN" "http://www.w3.org/Graphics/SVG/1.1/DTD/svg11.dtd">
<svg version="1.1" id="Layer_1" xmlns="http://www.w3.org/2000/svg" xmlns:xlink="http://www.w3.org/1999/xlink" x="0px" y="0px"
	 width="270.73px" height="45.938px" viewBox="0 0 270.73 45.938" enable-background="new 0 0 270.73 45.938" xml:space="preserve">
<g>
	<path d="M0,44.854L6.17,1.758h0.7L24.39,37.12L41.741,1.758h0.69l6.202,43.096H44.41l-4.258-30.82l-15.238,30.82h-1.101
		L8.394,13.799L4.16,44.854H0z"/>
	<path d="M90.307,1.758l20.098,43.096h-4.652l-6.778-14.18H80.409l-6.713,14.18h-4.805L89.252,1.758H90.307z M89.763,10.915
		l-7.384,15.6h14.733L89.763,10.915z"/>
	<path d="M174.257,8.995l-3.34,3.164c-2.402-2.363-5.034-4.155-7.896-5.376s-5.65-1.831-8.364-1.831c-3.379,0-6.597,0.83-9.653,2.49
		c-3.057,1.66-5.425,3.911-7.104,6.753c-1.68,2.842-2.52,5.845-2.52,9.009c0,3.242,0.869,6.323,2.607,9.243
		c1.738,2.92,4.141,5.215,7.207,6.885c3.066,1.67,6.426,2.505,10.078,2.505c4.434,0,8.184-1.25,11.25-3.75s4.883-5.742,5.449-9.727
		h-13.74V24.2h18.574c-0.039,6.66-2.017,11.948-5.933,15.864s-9.155,5.874-15.718,5.874c-7.969,0-14.278-2.715-18.926-8.145
		c-3.574-4.18-5.361-9.014-5.361-14.502c0-4.082,1.025-7.881,3.076-11.396s4.863-6.265,8.438-8.247s7.617-2.974,12.129-2.974
		c3.652,0,7.09,0.659,10.313,1.978S171.19,6.084,174.257,8.995z"/>
	<path d="M198.528,12.979c0,0,0-10.813,3.999-10.813s3.999,10.813,3.999,10.813v31.875h-7.998V12.979z"/>
	<path d="M270.73,9.756l-3.398,2.607c-1.875-2.441-4.126-4.292-6.753-5.552s-5.513-1.89-8.657-1.89
		c-3.438,0-6.621,0.825-9.551,2.476s-5.2,3.867-6.812,6.65s-2.417,5.913-2.417,9.39c0,5.254,1.802,9.639,5.405,13.154
		s8.149,5.273,13.638,5.273c6.035,0,11.084-2.363,15.146-7.09l3.398,2.578c-2.148,2.734-4.829,4.849-8.042,6.343
		s-6.802,2.241-10.767,2.241c-7.539,0-13.486-2.51-17.842-7.529c-3.652-4.238-5.479-9.355-5.479-15.352
		c0-6.309,2.212-11.616,6.636-15.923s9.966-6.46,16.626-6.46c4.023,0,7.656,0.796,10.898,2.388S268.66,6.885,270.73,9.756z"/>
</g>
<path fill="#4FBA6F" d="M205.031,9.199c-0.313,0.932-4.217,0.987-4.971,0C199.511,8.479,199.469,0,202.527,0
	C205.761,0,205.252,8.542,205.031,9.199z"/>
<line fill="none" stroke="#FFFFFF" stroke-width="0.25" stroke-miterlimit="10" x1="202.031" y1="32.042" x2="203.469" y2="32.042"/>
<line fill="none" stroke="#FFFFFF" stroke-width="0.25" stroke-miterlimit="10" x1="201.03" y1="31.146" x2="204.469" y2="31.146"/>
<polyline fill="none" stroke="#FFFFFF" stroke-width="0.25" stroke-miterlimit="10" points="199.875,30.26 202.875,30.26 
	205.625,30.26 "/>
<line fill="none" stroke="#FFFFFF" stroke-width="0.25" stroke-miterlimit="10" x1="202.032" y1="18.875" x2="203.47" y2="18.875"/>
<line fill="none" stroke="#FFFFFF" stroke-width="0.25" stroke-miterlimit="10" x1="201.031" y1="17.979" x2="204.47" y2="17.979"/>
</svg>
