<?xml version="1.0" encoding="utf-8"?>
<!-- Generator: Adobe Illustrator 16.2.0, SVG Export Plug-In . SVG Version: 6.00 Build 0)  -->
<!DOCTYPE svg PUBLIC "-//W3C//DTD SVG 1.1//EN" "http://www.w3.org/Graphics/SVG/1.1/DTD/svg11.dtd">
<svg version="1.1" id="Layer_1" xmlns="http://www.w3.org/2000/svg" xmlns:xlink="http://www.w3.org/1999/xlink" x="0px" y="0px"
	 width="531.67px" height="531.66px" viewBox="40.165 130.917 531.67 531.66" enable-background="new 40.165 130.917 531.67 531.66"
	 xml:space="preserve">
<g id="XMLID_2_">
	<path id="XMLID_16_" fill="#010101" d="M217.269,386.273c-3.293-2.262-7.695-2.805-12.719-1.584
		c-3.308,0.776-6.113,2.528-8.131,5.075l-1.144,1.771c-1.153,1.889-1.528,3.218-1.898,4.755c-0.287,1.411-0.348,2.384-0.177,2.875
		h29.81c0.004-0.562-0.052-1.546-0.294-3.221C222.16,391.669,220.277,388.331,217.269,386.273z"/>
	<path id="XMLID_15_" fill="#010101" d="M346.083,384.045c-5.984,1.246-9.372,4.857-10.232,20.351
		c0.004,0.052-0.142,3.648-0.143,3.746c0,0,0.101,3.329,0.145,4.406l0.019,0.364c0.583,12.424,4.688,17.964,13.312,17.964
		c9.448,0,13.016-6.223,13.161-22.955c0.172-12.089-1.608-19.213-5.604-22.425C354.189,383.44,350.702,382.962,346.083,384.045z"/>
	<path id="XMLID_3_" fill="#010101" d="M306.006,130.917c-146.815,0-265.841,119.003-265.841,265.819
		c0,146.816,119.025,265.841,265.841,265.841c146.804,0,265.829-119.024,265.829-265.841
		C571.835,249.921,452.81,130.917,306.006,130.917z M393.776,361.912c1.553-2.446,3.93-3.799,6.531-3.679
		c1.606,0.018,1.741,0.021,29.643,11.533l-0.011,0.025c0.735,0.261,2.568,1.009,7.771,3.13c3.378,1.264,5.531,4.807,5.316,8.802
		c-0.231,3.918-2.568,7.004-5.952,7.869c-0.652,0.218-2.843,0.917-10.953,3.506c-23.418,7.524-25.587,8.193-26.994,8.193
		c-0.139,0-0.269-0.007-0.411-0.016c-2.575-0.089-4.913-1.642-6.234-4.157c-0.824-1.567-1.433-4.074-1.811-7.455
		C389.72,380.443,390.846,366.624,393.776,361.912z M167.339,380.658l-22.671,71.281c-4.771,15.122-10.048,18.856-18.122,20.455
		c-2.728,0.555-5.313,0.828-7.698,0.828c-5.166,0-9.381-1.282-12.06-3.758c-2.35-2.182-3.382-5.025-2.988-8.229
		c0.548-4.869,4.113-8.186,9.535-8.854c0.545-0.019,5.19,0.092,5.19,0.092c1.771,0.106,3.255-0.417,4.339-1.426
		c1.066-1.013,1.665-2.56,1.714-4.459c-0.019,0-0.249-1.387-0.249-1.387c-0.105-0.58-0.72-2.188-0.72-2.188
		c-0.364-0.752-29.206-59.448-29.497-60.04c-2.755-7.949-0.329-14.116,6.418-16.678c5.378-2.133,10.705,0.521,12.547,4.2
		l-0.062,0.031c1.005,1.742,4.916,9.127,22.495,42.333l10.815-36.725c2.697-9.238,7.339-12.815,14.191-10.937
		c2.958,0.791,5.125,2.377,6.441,4.715C168.516,372.758,168.641,376.467,167.339,380.658z M243.607,414.404
		c-1.589,1.721-4.125,2.07-7.448,2.07l-37.407,0.028c-1.009,0.669-0.428,3.749-0.236,4.762h-0.01c0.2,0.592,0.405,1.411,0.683,2.525
		c1.435,3.792,4.704,6.683,8.916,7.756c5.661,1.426,12.137-0.559,17.755-5.455c4.121-3.673,6.554-4.709,9.65-4.087
		c4.569,0.62,7.827,4.713,7.827,9.935c0,6.074-7.147,16.712-26.326,19.409c-2.399,0.326-4.718,0.484-6.948,0.484
		c-9.487,0-17.389-2.908-23.116-8.563c-9.251-9.121-12.808-25.095-10.287-46.188c2.1-17.961,11.311-28.859,26.634-31.513
		c12.057-2.172,22.299-0.38,29.601,5.148c6.883,5.201,11.072,13.625,12.116,24.367C246.005,405.219,246.092,411.628,243.607,414.404
		z M278.325,450.743c-1.524,0.718-3.17,1.076-4.81,1.076c-1.583,0-3.16-0.333-4.625-1.009c-2.699-1.234-4.693-3.501-5.469-6.217
		c-0.029-0.076-0.069-0.193-0.582-3.564l-0.018-90.473c0-5.194,1.437-8.262,4.803-10.253c3.382-2.016,7.295-2.378,10.734-0.985
		l0.004,0.003c2.813,1.147,4.876,3.366,5.525,5.933l0.047,0.383c0.029,0.203,0.569,4.252,0.569,4.252l0.014,90.614
		C284.519,445.238,282.203,449.067,278.325,450.743z M375.698,416.312c-1.191,16.282-6.449,26.009-17.046,31.534
		c-8.413,4.354-18.922,4.771-26.771,1.056l-1.96-1.037l-0.933-0.629c-0.458-0.414-0.992-0.764-0.992-0.764l-1.031-0.688l-0.376,1.67
		l0.15,2.246l0.003,15.417l-0.556,4.013c-0.806,2.813-2.816,4.986-5.567,6.185c-1.434,0.623-2.97,0.93-4.519,0.93
		c-1.859,0-3.74-0.441-5.489-1.324c-3.832-1.829-5.707-5.389-5.707-10.861v-88.564c0-5.62,1.226-8.4,4.524-10.262
		c5.615-3.209,11.928-1.429,14.291,2.246l0.667,0.998l0.796,1.862l0.718-0.359c0.174-0.114,0.79-0.628,0.79-0.628
		c7.415-5.029,14.913-6.499,23.718-4.71C370.614,368.569,378.178,384.027,375.698,416.312z M390.355,448.08
		c-5.39,0-9.609-4.223-9.609-9.612c0-5.379,4.22-9.594,9.609-9.594c5.299,0,9.609,4.304,9.609,9.594
		C399.966,443.77,395.655,448.08,390.355,448.08z M456.676,416.331c-0.077,26.943-0.118,27.066-0.637,28.583
		c-0.94,2.51-3.028,4.15-5.895,4.672c-0.5,0.086-1.073,0.126-1.702,0.126c-8.328,0-27.07-7.134-31.399-12.275
		c-1.085-1.307-1.728-2.771-1.866-4.24c-0.114-1.013,0.016-2.056,0.39-3.071c0.525-1.521,0.595-1.721,20.124-24.64l0.47-0.552
		c1.304-1.541,4.955-5.876,4.955-5.876c2.244-2.811,6.268-3.758,9.994-2.319c3.642,1.402,5.853,4.577,5.63,8.087
		C456.736,405.163,456.676,416.331,456.676,416.331z M451.095,363.507c-0.794,0.252-1.579,0.375-2.357,0.375
		c-3.493,0-6.813-2.513-9.898-7.507c-3.468-5.458-34.007-53.514-34.819-55.186c-0.739-2.711,0.061-5.378,2.029-7.427
		c5.416-5.59,33.475-13.481,41.152-11.573c2.881,0.718,4.944,2.635,5.665,5.258l0.032,0.148c0.429,2.479,3.766,52.075,4.249,63.178
		C457.492,357.88,455.455,362.167,451.095,363.507z M466.725,363.676c0.302-0.39,6.824-9.274,6.824-9.274
		c15.66-21.418,15.984-21.845,17.325-22.719c2.195-1.482,4.869-1.602,7.501-0.326c6.377,3.108,18.857,21.526,19.643,28.981
		l0.014,0.123l-0.004,0.289c0.171,2.807-0.926,5.218-3.095,6.694c-1.342,0.872-1.617,1.05-30.787,8.115
		c0,0-8.215,2.529-12.102,1.985c-2.139-0.534-4.125-1.945-5.489-4.038C464.423,370.242,464.49,366.386,466.725,363.676z
		 M497.107,436.822c-1.064,0.427-2.117,0.635-3.13,0.635c-1.56,0-3.023-0.498-4.283-1.485c-1.299-1.016-1.954-1.957-17.218-26.751
		l-4.363-7.1c-2.002-3.05-1.668-7.192,0.859-10.272c2.446-3.013,6.145-4.139,9.415-2.885c0.464,0.178,6.775,2.265,10.908,3.626
		c25.651,8.432,25.754,8.508,27.007,9.444c2.064,1.65,3.002,4.215,2.61,7.068C517.869,416.281,503.81,434.147,497.107,436.822z"/>
</g>
</svg>
